<?xml version="1.0" standalone="no"?>
<!DOCTYPE svg PUBLIC "-//W3C//DTD SVG 20010904//EN"
 "http://www.w3.org/TR/2001/REC-SVG-20010904/DTD/svg10.dtd">
<svg version="1.0" xmlns="http://www.w3.org/2000/svg"
 width="300.000000pt" height="300.000000pt" viewBox="0 0 300.000000 300.000000"
 preserveAspectRatio="xMidYMid meet">
<metadata>
Created by potrace 1.14, written by Peter Selinger 2001-2017
</metadata>
<g transform="translate(0.000000,300.000000) scale(0.100000,-0.100000)"
fill="#000000" stroke="none">
<path d="M0 1500 l0 -1500 1500 0 1500 0 0 1500 0 1500 -1500 0 -1500 0 0
-1500z m2520 1143 c0 -5 -217 -225 -481 -489 -315 -315 -480 -487 -476 -495 4
-8 78 -113 164 -235 87 -121 237 -330 332 -465 96 -134 232 -323 301 -419 69
-96 136 -190 149 -208 l22 -32 -945 0 -946 0 0 1175 0 1175 940 0 c517 0 940
-3 940 -7z"/>
<path d="M1117 1232 l-347 -347 0 -232 0 -233 754 0 c414 0 756 3 758 6 5 4
-782 1116 -811 1146 -3 4 -163 -149 -354 -340z"/>
</g>
</svg>
