<?xml version="1.0" standalone="no"?>
<!DOCTYPE svg PUBLIC "-//W3C//DTD SVG 20010904//EN"
 "http://www.w3.org/TR/2001/REC-SVG-20010904/DTD/svg10.dtd">
<svg version="1.0" xmlns="http://www.w3.org/2000/svg"
 width="300.000000pt" height="300.000000pt" viewBox="0 0 300.000000 300.000000"
 preserveAspectRatio="xMidYMid meet">
<metadata>
Created by potrace 1.14, written by Peter Selinger 2001-2017
</metadata>
<g transform="translate(0.000000,300.000000) scale(0.100000,-0.100000)"
fill="#000000" stroke="none">
<path d="M632 2724 c-56 -28 -92 -67 -117 -127 -14 -33 -15 -163 -15 -1100 l0
-1062 26 -53 c29 -58 83 -105 143 -123 24 -7 307 -9 852 -7 l816 3 49 30 c30
19 60 49 79 79 l30 49 0 1087 0 1087 -30 49 c-19 30 -49 60 -79 79 l-49 30
-826 3 -826 2 -53 -26z m238 -789 c0 -311 2 -565 5 -565 3 0 86 61 185 135 99
74 184 135 190 135 6 0 91 -61 190 -135 99 -74 182 -135 185 -135 3 0 5 254 5
565 l0 565 310 0 310 0 0 -1000 0 -1000 -750 0 -750 0 0 1000 0 1000 60 0 60
0 0 -565z m500 259 l0 -305 -45 33 c-25 18 -52 37 -60 43 -16 11 -16 11 -90
-43 l-45 -33 0 305 0 306 120 0 120 0 0 -306z"/>
</g>
</svg>
